<mxfile host="app.diagrams.net" agent="Mozilla/5.0 (Windows NT 10.0; Win64; x64) AppleWebKit/537.36 (KHTML, like Gecko) Chrome/126.0.0.0 Safari/537.36" version="26.0.6">
  <diagram name="第 1 页" id="gQdqMTooWAIrieCzeDNg">
    <mxGraphModel dx="2555" dy="994" grid="1" gridSize="10" guides="1" tooltips="1" connect="1" arrows="1" fold="1" page="1" pageScale="1" pageWidth="827" pageHeight="1169" math="0" shadow="0">
      <root>
        <mxCell id="0" />
        <mxCell id="1" parent="0" />
        <mxCell id="Cvw1Gns9jHeJLgj6o-cQ-2" value="&lt;font style=&quot;font-size: 10px;&quot;&gt;app/sdk端&lt;/font&gt;" style="rounded=0;whiteSpace=wrap;html=1;" parent="1" vertex="1">
          <mxGeometry x="127" y="288" width="90" height="40" as="geometry" />
        </mxCell>
        <mxCell id="Cvw1Gns9jHeJLgj6o-cQ-3" value="&lt;font style=&quot;font-size: 10px;&quot;&gt;车端&lt;/font&gt;" style="rounded=0;whiteSpace=wrap;html=1;" parent="1" vertex="1">
          <mxGeometry x="127" y="389" width="90" height="40" as="geometry" />
        </mxCell>
        <mxCell id="Cvw1Gns9jHeJLgj6o-cQ-4" value="&lt;font style=&quot;font-size: 10px;&quot;&gt;云端：埋点&lt;/font&gt;" style="rounded=0;whiteSpace=wrap;html=1;" parent="1" vertex="1">
          <mxGeometry x="127" y="200" width="90" height="40" as="geometry" />
        </mxCell>
        <mxCell id="Cvw1Gns9jHeJLgj6o-cQ-5" value="&lt;font style=&quot;font-size: 10px;&quot;&gt;cls日志服务：&lt;span style=&quot;color: rgba(0, 0, 0, 0.9); font-family: -apple-system, BlinkMacSystemFont, &amp;quot;pingfang SC&amp;quot;, &amp;quot;Hiragina Sans GB&amp;quot;, &amp;quot;Helvetica Neue&amp;quot;, Helvetica, &amp;quot;microsoft yahei ui&amp;quot;, &amp;quot;microsoft yahei&amp;quot;, simsun, arial, sans-serif; text-align: left;&quot;&gt;vehicle_controller_butler_topic&lt;/span&gt;&lt;/font&gt;" style="rounded=0;whiteSpace=wrap;html=1;fillColor=#ffe6cc;strokeColor=#d79b00;" parent="1" vertex="1">
          <mxGeometry x="346" y="289" width="150" height="40" as="geometry" />
        </mxCell>
        <mxCell id="Cvw1Gns9jHeJLgj6o-cQ-6" value="&lt;font style=&quot;font-size: 10px;&quot;&gt;kafka&lt;/font&gt;" style="rounded=0;whiteSpace=wrap;html=1;" parent="1" vertex="1">
          <mxGeometry x="699" y="288" width="90" height="40" as="geometry" />
        </mxCell>
        <mxCell id="Cvw1Gns9jHeJLgj6o-cQ-7" value="" style="endArrow=classic;html=1;rounded=0;exitX=1;exitY=0.5;exitDx=0;exitDy=0;entryX=0;entryY=0.5;entryDx=0;entryDy=0;" parent="1" source="Cvw1Gns9jHeJLgj6o-cQ-2" target="Cvw1Gns9jHeJLgj6o-cQ-5" edge="1">
          <mxGeometry width="50" height="50" relative="1" as="geometry">
            <mxPoint x="566" y="376" as="sourcePoint" />
            <mxPoint x="616" y="326" as="targetPoint" />
          </mxGeometry>
        </mxCell>
        <mxCell id="Cvw1Gns9jHeJLgj6o-cQ-8" value="" style="endArrow=classic;html=1;rounded=0;exitX=1;exitY=0.5;exitDx=0;exitDy=0;" parent="1" source="Cvw1Gns9jHeJLgj6o-cQ-3" edge="1">
          <mxGeometry width="50" height="50" relative="1" as="geometry">
            <mxPoint x="206" y="419" as="sourcePoint" />
            <mxPoint x="346" y="409" as="targetPoint" />
          </mxGeometry>
        </mxCell>
        <mxCell id="Cvw1Gns9jHeJLgj6o-cQ-9" value="" style="endArrow=classic;html=1;rounded=0;exitX=1;exitY=0.5;exitDx=0;exitDy=0;entryX=0;entryY=0.5;entryDx=0;entryDy=0;" parent="1" source="Cvw1Gns9jHeJLgj6o-cQ-4" target="Cvw1Gns9jHeJLgj6o-cQ-6" edge="1">
          <mxGeometry width="50" height="50" relative="1" as="geometry">
            <mxPoint x="208" y="488" as="sourcePoint" />
            <mxPoint x="698" y="337" as="targetPoint" />
            <Array as="points">
              <mxPoint x="500" y="220" />
            </Array>
          </mxGeometry>
        </mxCell>
        <mxCell id="Cvw1Gns9jHeJLgj6o-cQ-23" value="&lt;font style=&quot;font-size: 10px;&quot;&gt;topic: event_cloud&lt;/font&gt;" style="edgeLabel;html=1;align=center;verticalAlign=middle;resizable=0;points=[];" parent="Cvw1Gns9jHeJLgj6o-cQ-9" vertex="1" connectable="0">
          <mxGeometry x="0.6019" y="-2" relative="1" as="geometry">
            <mxPoint x="-27" y="-19" as="offset" />
          </mxGeometry>
        </mxCell>
        <mxCell id="Cvw1Gns9jHeJLgj6o-cQ-11" value="&lt;font style=&quot;font-size: 10px;&quot;&gt;cls日志服务：&lt;/font&gt;&lt;span style=&quot;color: rgba(0, 0, 0, 0.9); font-family: -apple-system, BlinkMacSystemFont, &amp;quot;pingfang SC&amp;quot;, &amp;quot;Hiragina Sans GB&amp;quot;, &amp;quot;Helvetica Neue&amp;quot;, Helvetica, &amp;quot;microsoft yahei ui&amp;quot;, &amp;quot;microsoft yahei&amp;quot;, simsun, arial, sans-serif; font-size: 10px; text-align: left;&quot;&gt;vehicle_log_topic&lt;/span&gt;" style="rounded=0;whiteSpace=wrap;html=1;fillColor=#ffe6cc;strokeColor=#d79b00;" parent="1" vertex="1">
          <mxGeometry x="346" y="389" width="150" height="40" as="geometry" />
        </mxCell>
        <mxCell id="Cvw1Gns9jHeJLgj6o-cQ-12" value="" style="endArrow=classic;html=1;rounded=0;exitX=1;exitY=0.5;exitDx=0;exitDy=0;entryX=0;entryY=0.5;entryDx=0;entryDy=0;" parent="1" source="Cvw1Gns9jHeJLgj6o-cQ-5" target="Cvw1Gns9jHeJLgj6o-cQ-6" edge="1">
          <mxGeometry width="50" height="50" relative="1" as="geometry">
            <mxPoint x="259" y="237" as="sourcePoint" />
            <mxPoint x="699" y="327" as="targetPoint" />
          </mxGeometry>
        </mxCell>
        <mxCell id="Cvw1Gns9jHeJLgj6o-cQ-24" value="&lt;font style=&quot;font-size: 10px;&quot;&gt;topic: event_app&lt;/font&gt;" style="edgeLabel;html=1;align=center;verticalAlign=middle;resizable=0;points=[];" parent="Cvw1Gns9jHeJLgj6o-cQ-12" vertex="1" connectable="0">
          <mxGeometry x="-0.2171" y="-1" relative="1" as="geometry">
            <mxPoint as="offset" />
          </mxGeometry>
        </mxCell>
        <mxCell id="Cvw1Gns9jHeJLgj6o-cQ-13" value="" style="endArrow=classic;html=1;rounded=0;exitX=1;exitY=0.5;exitDx=0;exitDy=0;entryX=0;entryY=0.5;entryDx=0;entryDy=0;" parent="1" source="Cvw1Gns9jHeJLgj6o-cQ-11" target="Cvw1Gns9jHeJLgj6o-cQ-6" edge="1">
          <mxGeometry width="50" height="50" relative="1" as="geometry">
            <mxPoint x="599" y="237" as="sourcePoint" />
            <mxPoint x="709" y="287" as="targetPoint" />
          </mxGeometry>
        </mxCell>
        <mxCell id="Cvw1Gns9jHeJLgj6o-cQ-25" value="&lt;font style=&quot;font-size: 10px;&quot;&gt;topic: event_vehicle&lt;/font&gt;" style="edgeLabel;html=1;align=center;verticalAlign=middle;resizable=0;points=[];" parent="Cvw1Gns9jHeJLgj6o-cQ-13" vertex="1" connectable="0">
          <mxGeometry x="-0.1591" y="-1" relative="1" as="geometry">
            <mxPoint as="offset" />
          </mxGeometry>
        </mxCell>
        <mxCell id="Cvw1Gns9jHeJLgj6o-cQ-14" value="&lt;font style=&quot;font-size: 10px;&quot;&gt;cls日志服务：&lt;/font&gt;&lt;span style=&quot;color: rgba(0, 0, 0, 0.9); font-family: -apple-system, BlinkMacSystemFont, &amp;quot;pingfang SC&amp;quot;, &amp;quot;Hiragina Sans GB&amp;quot;, &amp;quot;Helvetica Neue&amp;quot;, Helvetica, &amp;quot;microsoft yahei ui&amp;quot;, &amp;quot;microsoft yahei&amp;quot;, simsun, arial, sans-serif; font-size: 10px; text-align: left;&quot;&gt;event_tracking_topic&lt;/span&gt;" style="rounded=0;whiteSpace=wrap;html=1;fillColor=#ffe6cc;strokeColor=#d79b00;" parent="1" vertex="1">
          <mxGeometry x="344" y="500" width="150" height="40" as="geometry" />
        </mxCell>
        <mxCell id="Cvw1Gns9jHeJLgj6o-cQ-15" value="" style="endArrow=classic;html=1;rounded=0;exitX=0.5;exitY=1;exitDx=0;exitDy=0;" parent="1" source="Cvw1Gns9jHeJLgj6o-cQ-16" target="Cvw1Gns9jHeJLgj6o-cQ-19" edge="1">
          <mxGeometry width="50" height="50" relative="1" as="geometry">
            <mxPoint x="508" y="237" as="sourcePoint" />
            <mxPoint x="933" y="447" as="targetPoint" />
          </mxGeometry>
        </mxCell>
        <mxCell id="Cvw1Gns9jHeJLgj6o-cQ-18" value="" style="endArrow=classic;html=1;rounded=0;exitX=1;exitY=0.5;exitDx=0;exitDy=0;entryX=0;entryY=0.5;entryDx=0;entryDy=0;" parent="1" source="Cvw1Gns9jHeJLgj6o-cQ-6" target="Cvw1Gns9jHeJLgj6o-cQ-16" edge="1">
          <mxGeometry width="50" height="50" relative="1" as="geometry">
            <mxPoint x="789" y="277" as="sourcePoint" />
            <mxPoint x="1078" y="277" as="targetPoint" />
          </mxGeometry>
        </mxCell>
        <mxCell id="Cvw1Gns9jHeJLgj6o-cQ-16" value="&lt;font style=&quot;font-size: 10px;&quot;&gt;云端：数据加工&lt;/font&gt;" style="rounded=0;whiteSpace=wrap;html=1;" parent="1" vertex="1">
          <mxGeometry x="890" y="289" width="90" height="40" as="geometry" />
        </mxCell>
        <mxCell id="Cvw1Gns9jHeJLgj6o-cQ-19" value="&lt;span style=&quot;font-size: 10px; text-wrap: nowrap;&quot;&gt;使用埋点日志输出器&lt;/span&gt;&lt;br&gt;&lt;span style=&quot;font-size: 10px; text-wrap: nowrap;&quot;&gt;traceLog-logger&lt;/span&gt;" style="shape=process;whiteSpace=wrap;html=1;backgroundOutline=1;fillColor=#d5e8d4;strokeColor=#82b366;" parent="1" vertex="1">
          <mxGeometry x="847" y="505" width="178" height="30" as="geometry" />
        </mxCell>
        <mxCell id="Cvw1Gns9jHeJLgj6o-cQ-20" value="" style="endArrow=classic;html=1;rounded=0;exitX=0;exitY=0.5;exitDx=0;exitDy=0;entryX=1;entryY=0.5;entryDx=0;entryDy=0;" parent="1" source="Cvw1Gns9jHeJLgj6o-cQ-19" target="Cvw1Gns9jHeJLgj6o-cQ-14" edge="1">
          <mxGeometry width="50" height="50" relative="1" as="geometry">
            <mxPoint x="944" y="339" as="sourcePoint" />
            <mxPoint x="944" y="515" as="targetPoint" />
          </mxGeometry>
        </mxCell>
        <mxCell id="Cvw1Gns9jHeJLgj6o-cQ-22" value="&lt;font style=&quot;font-size: 10px;&quot;&gt;收集指定文件日志&lt;/font&gt;" style="edgeLabel;html=1;align=center;verticalAlign=middle;resizable=0;points=[];" parent="Cvw1Gns9jHeJLgj6o-cQ-20" vertex="1" connectable="0">
          <mxGeometry x="0.1349" relative="1" as="geometry">
            <mxPoint x="29" as="offset" />
          </mxGeometry>
        </mxCell>
        <mxCell id="mXQXn8K654Q4OL4YO3v6-1" value="&lt;font style=&quot;font-size: 10px;&quot;&gt;app/sdk端&lt;/font&gt;&lt;span style=&quot;font-size: 10px;&quot;&gt;埋点&lt;/span&gt;" style="rounded=0;whiteSpace=wrap;html=1;" parent="1" vertex="1">
          <mxGeometry x="127" y="1369.5" width="90" height="40" as="geometry" />
        </mxCell>
        <mxCell id="mXQXn8K654Q4OL4YO3v6-2" value="&lt;font style=&quot;font-size: 10px;&quot;&gt;车端&lt;/font&gt;&lt;span style=&quot;font-size: 10px;&quot;&gt;埋点&lt;/span&gt;" style="rounded=0;whiteSpace=wrap;html=1;" parent="1" vertex="1">
          <mxGeometry x="127" y="1470.5" width="90" height="40" as="geometry" />
        </mxCell>
        <mxCell id="mXQXn8K654Q4OL4YO3v6-3" value="&lt;font style=&quot;font-size: 10px;&quot;&gt;云端埋点&lt;/font&gt;" style="rounded=0;whiteSpace=wrap;html=1;" parent="1" vertex="1">
          <mxGeometry x="127" y="1220" width="90" height="40" as="geometry" />
        </mxCell>
        <mxCell id="mXQXn8K654Q4OL4YO3v6-4" value="&lt;span style=&quot;font-size: 10px;&quot;&gt;打点服务器Nginx&lt;/span&gt;" style="rounded=0;whiteSpace=wrap;html=1;fillColor=#ffe6cc;strokeColor=#d79b00;" parent="1" vertex="1">
          <mxGeometry x="360" y="1420" width="150" height="40" as="geometry" />
        </mxCell>
        <mxCell id="mXQXn8K654Q4OL4YO3v6-5" value="&lt;font style=&quot;font-size: 10px;&quot;&gt;kafka&lt;/font&gt;" style="rounded=0;whiteSpace=wrap;html=1;" parent="1" vertex="1">
          <mxGeometry x="699" y="1338" width="90" height="40" as="geometry" />
        </mxCell>
        <mxCell id="mXQXn8K654Q4OL4YO3v6-6" value="" style="endArrow=classic;html=1;rounded=0;exitX=1;exitY=0.5;exitDx=0;exitDy=0;entryX=0;entryY=0.5;entryDx=0;entryDy=0;" parent="1" source="mXQXn8K654Q4OL4YO3v6-1" target="mXQXn8K654Q4OL4YO3v6-4" edge="1">
          <mxGeometry width="50" height="50" relative="1" as="geometry">
            <mxPoint x="566" y="1426" as="sourcePoint" />
            <mxPoint x="616" y="1376" as="targetPoint" />
          </mxGeometry>
        </mxCell>
        <mxCell id="mXQXn8K654Q4OL4YO3v6-7" value="" style="endArrow=classic;html=1;rounded=0;exitX=1;exitY=0.5;exitDx=0;exitDy=0;entryX=0;entryY=0.5;entryDx=0;entryDy=0;" parent="1" source="mXQXn8K654Q4OL4YO3v6-2" target="mXQXn8K654Q4OL4YO3v6-4" edge="1">
          <mxGeometry width="50" height="50" relative="1" as="geometry">
            <mxPoint x="206" y="1469" as="sourcePoint" />
            <mxPoint x="346" y="1459" as="targetPoint" />
          </mxGeometry>
        </mxCell>
        <mxCell id="mXQXn8K654Q4OL4YO3v6-8" value="" style="endArrow=classic;html=1;rounded=0;exitX=1;exitY=0.5;exitDx=0;exitDy=0;entryX=0;entryY=0.5;entryDx=0;entryDy=0;" parent="1" source="mXQXn8K654Q4OL4YO3v6-3" target="dG80GKDMeRhEDVptzkHj-2" edge="1">
          <mxGeometry width="50" height="50" relative="1" as="geometry">
            <mxPoint x="208" y="1538" as="sourcePoint" />
            <mxPoint x="360" y="1270" as="targetPoint" />
            <Array as="points" />
          </mxGeometry>
        </mxCell>
        <mxCell id="mXQXn8K654Q4OL4YO3v6-11" value="" style="endArrow=classic;html=1;rounded=0;exitX=1;exitY=0.5;exitDx=0;exitDy=0;entryX=0;entryY=0.5;entryDx=0;entryDy=0;" parent="1" source="mXQXn8K654Q4OL4YO3v6-4" target="mXQXn8K654Q4OL4YO3v6-5" edge="1">
          <mxGeometry width="50" height="50" relative="1" as="geometry">
            <mxPoint x="259" y="1287" as="sourcePoint" />
            <mxPoint x="699" y="1377" as="targetPoint" />
          </mxGeometry>
        </mxCell>
        <mxCell id="mXQXn8K654Q4OL4YO3v6-12" value="&lt;div style=&quot;&quot;&gt;&lt;span style=&quot;font-size: 10px; background-color: light-dark(#ffffff, var(--ge-dark-color, #121212)); color: light-dark(rgb(0, 0, 0), rgb(255, 255, 255));&quot;&gt;topic:&amp;nbsp;&lt;/span&gt;&lt;span style=&quot;background-color: light-dark(#ffffff, var(--ge-dark-color, #121212)); color: light-dark(rgb(0, 0, 0), rgb(255, 255, 255));&quot;&gt;magnolia_&lt;/span&gt;&lt;/div&gt;&lt;div style=&quot;&quot;&gt;&lt;span style=&quot;font-size: 10px; background-color: light-dark(#ffffff, var(--ge-dark-color, #121212)); color: light-dark(rgb(0, 0, 0), rgb(255, 255, 255));&quot;&gt;event_app&lt;/span&gt;&lt;/div&gt;&lt;div style=&quot;&quot;&gt;&lt;font style=&quot;font-size: 10px;&quot;&gt;topic:&amp;nbsp;&lt;/font&gt;&lt;span style=&quot;background-color: light-dark(#ffffff, var(--ge-dark-color, #121212)); color: light-dark(rgb(0, 0, 0), rgb(255, 255, 255));&quot;&gt;magnolia_&lt;/span&gt;&lt;/div&gt;&lt;div style=&quot;&quot;&gt;&lt;font style=&quot;font-size: 10px;&quot;&gt;event_sdk&lt;br&gt;&lt;/font&gt;&lt;/div&gt;&lt;div style=&quot;&quot;&gt;&lt;font style=&quot;font-size: 10px;&quot;&gt;topic:&amp;nbsp;&lt;/font&gt;&lt;span style=&quot;background-color: light-dark(#ffffff, var(--ge-dark-color, #121212)); color: light-dark(rgb(0, 0, 0), rgb(255, 255, 255));&quot;&gt;magnolia_&lt;/span&gt;&lt;/div&gt;&lt;div style=&quot;&quot;&gt;&lt;font style=&quot;font-size: 10px;&quot;&gt;event_vehicle&lt;br&gt;&lt;/font&gt;&lt;/div&gt;" style="edgeLabel;html=1;align=left;verticalAlign=middle;resizable=0;points=[];" parent="mXQXn8K654Q4OL4YO3v6-11" vertex="1" connectable="0">
          <mxGeometry x="-0.2171" y="-1" relative="1" as="geometry">
            <mxPoint x="-34" y="1" as="offset" />
          </mxGeometry>
        </mxCell>
        <mxCell id="mXQXn8K654Q4OL4YO3v6-15" value="&lt;font style=&quot;font-size: 10px;&quot;&gt;日志服务：&lt;/font&gt;&lt;span style=&quot;color: rgba(0, 0, 0, 0.9); font-family: -apple-system, BlinkMacSystemFont, &amp;quot;pingfang SC&amp;quot;, &amp;quot;Hiragina Sans GB&amp;quot;, &amp;quot;Helvetica Neue&amp;quot;, Helvetica, &amp;quot;microsoft yahei ui&amp;quot;, &amp;quot;microsoft yahei&amp;quot;, simsun, arial, sans-serif; font-size: 10px; text-align: left;&quot;&gt;event_tracking_topic&lt;/span&gt;" style="rounded=0;whiteSpace=wrap;html=1;fillColor=#ffe6cc;strokeColor=#d79b00;" parent="1" vertex="1">
          <mxGeometry x="1187" y="1339" width="150" height="40" as="geometry" />
        </mxCell>
        <mxCell id="mXQXn8K654Q4OL4YO3v6-16" value="" style="endArrow=classic;html=1;rounded=0;exitX=0.5;exitY=1;exitDx=0;exitDy=0;entryX=0.5;entryY=0;entryDx=0;entryDy=0;" parent="1" source="mXQXn8K654Q4OL4YO3v6-18" target="mXQXn8K654Q4OL4YO3v6-22" edge="1">
          <mxGeometry width="50" height="50" relative="1" as="geometry">
            <mxPoint x="508" y="1287" as="sourcePoint" />
            <mxPoint x="935.9214659685863" y="1555" as="targetPoint" />
          </mxGeometry>
        </mxCell>
        <mxCell id="mXQXn8K654Q4OL4YO3v6-17" value="" style="endArrow=classic;html=1;rounded=0;exitX=1;exitY=0.5;exitDx=0;exitDy=0;entryX=0;entryY=0.5;entryDx=0;entryDy=0;" parent="1" source="mXQXn8K654Q4OL4YO3v6-5" target="mXQXn8K654Q4OL4YO3v6-18" edge="1">
          <mxGeometry width="50" height="50" relative="1" as="geometry">
            <mxPoint x="789" y="1327" as="sourcePoint" />
            <mxPoint x="1078" y="1327" as="targetPoint" />
          </mxGeometry>
        </mxCell>
        <mxCell id="mXQXn8K654Q4OL4YO3v6-18" value="&lt;font style=&quot;font-size: 10px;&quot;&gt;数据加工服务&lt;/font&gt;" style="rounded=0;whiteSpace=wrap;html=1;" parent="1" vertex="1">
          <mxGeometry x="890" y="1339" width="90" height="40" as="geometry" />
        </mxCell>
        <mxCell id="mXQXn8K654Q4OL4YO3v6-20" value="" style="endArrow=classic;html=1;rounded=0;exitX=1;exitY=0.5;exitDx=0;exitDy=0;" parent="1" source="mXQXn8K654Q4OL4YO3v6-18" edge="1">
          <mxGeometry width="50" height="50" relative="1" as="geometry">
            <mxPoint x="1620" y="1340" as="sourcePoint" />
            <mxPoint x="1187" y="1359" as="targetPoint" />
          </mxGeometry>
        </mxCell>
        <mxCell id="mXQXn8K654Q4OL4YO3v6-21" value="&lt;font style=&quot;font-size: 10px;&quot;&gt;收集指定文件日志&lt;/font&gt;" style="edgeLabel;html=1;align=center;verticalAlign=middle;resizable=0;points=[];" parent="mXQXn8K654Q4OL4YO3v6-20" vertex="1" connectable="0">
          <mxGeometry x="0.1349" relative="1" as="geometry">
            <mxPoint x="-11" y="-1" as="offset" />
          </mxGeometry>
        </mxCell>
        <mxCell id="mXQXn8K654Q4OL4YO3v6-22" value="&lt;font style=&quot;font-size: 10px;&quot;&gt;MongoDB&lt;/font&gt;" style="rounded=0;whiteSpace=wrap;html=1;" parent="1" vertex="1">
          <mxGeometry x="807" y="1550" width="90" height="40" as="geometry" />
        </mxCell>
        <mxCell id="mXQXn8K654Q4OL4YO3v6-23" value="&lt;span style=&quot;font-size: 10px;&quot;&gt;报表系统&lt;/span&gt;" style="rounded=0;whiteSpace=wrap;html=1;" parent="1" vertex="1">
          <mxGeometry x="997" y="1550" width="90" height="40" as="geometry" />
        </mxCell>
        <mxCell id="mXQXn8K654Q4OL4YO3v6-24" value="" style="endArrow=classic;html=1;rounded=0;entryX=0.5;entryY=0;entryDx=0;entryDy=0;" parent="1" target="mXQXn8K654Q4OL4YO3v6-23" edge="1">
          <mxGeometry width="50" height="50" relative="1" as="geometry">
            <mxPoint x="937" y="1380" as="sourcePoint" />
            <mxPoint x="851" y="1566" as="targetPoint" />
          </mxGeometry>
        </mxCell>
        <mxCell id="mXQXn8K654Q4OL4YO3v6-25" value="&lt;font style=&quot;font-size: 10px;&quot;&gt;app/sdk端&lt;/font&gt;" style="rounded=0;whiteSpace=wrap;html=1;" parent="1" vertex="1">
          <mxGeometry x="127" y="780" width="90" height="40" as="geometry" />
        </mxCell>
        <mxCell id="mXQXn8K654Q4OL4YO3v6-26" value="&lt;font style=&quot;font-size: 10px;&quot;&gt;车端&lt;/font&gt;" style="rounded=0;whiteSpace=wrap;html=1;" parent="1" vertex="1">
          <mxGeometry x="127" y="860" width="90" height="40" as="geometry" />
        </mxCell>
        <mxCell id="mXQXn8K654Q4OL4YO3v6-27" value="&lt;font style=&quot;font-size: 10px;&quot;&gt;云端：埋点&lt;/font&gt;" style="rounded=0;whiteSpace=wrap;html=1;" parent="1" vertex="1">
          <mxGeometry x="127" y="700" width="90" height="40" as="geometry" />
        </mxCell>
        <mxCell id="mXQXn8K654Q4OL4YO3v6-30" value="" style="endArrow=classic;html=1;rounded=0;exitX=1;exitY=0.5;exitDx=0;exitDy=0;entryX=0;entryY=0.5;entryDx=0;entryDy=0;" parent="1" source="mXQXn8K654Q4OL4YO3v6-25" target="mXQXn8K654Q4OL4YO3v6-34" edge="1">
          <mxGeometry width="50" height="50" relative="1" as="geometry">
            <mxPoint x="566" y="767" as="sourcePoint" />
            <mxPoint x="346" y="700" as="targetPoint" />
          </mxGeometry>
        </mxCell>
        <mxCell id="mXQXn8K654Q4OL4YO3v6-31" value="" style="endArrow=classic;html=1;rounded=0;exitX=1;exitY=0.5;exitDx=0;exitDy=0;" parent="1" source="mXQXn8K654Q4OL4YO3v6-26" edge="1">
          <mxGeometry width="50" height="50" relative="1" as="geometry">
            <mxPoint x="206" y="810" as="sourcePoint" />
            <mxPoint x="346" y="800" as="targetPoint" />
          </mxGeometry>
        </mxCell>
        <mxCell id="mXQXn8K654Q4OL4YO3v6-34" value="&lt;span style=&quot;font-size: 10px;&quot;&gt;数据加工服务&lt;/span&gt;" style="rounded=0;whiteSpace=wrap;html=1;fillColor=#ffe6cc;strokeColor=#d79b00;" parent="1" vertex="1">
          <mxGeometry x="346" y="780" width="150" height="40" as="geometry" />
        </mxCell>
        <mxCell id="mXQXn8K654Q4OL4YO3v6-39" value="&lt;font style=&quot;font-size: 10px;&quot;&gt;cls日志服务：&lt;/font&gt;&lt;span style=&quot;color: rgba(0, 0, 0, 0.9); font-family: -apple-system, BlinkMacSystemFont, &amp;quot;pingfang SC&amp;quot;, &amp;quot;Hiragina Sans GB&amp;quot;, &amp;quot;Helvetica Neue&amp;quot;, Helvetica, &amp;quot;microsoft yahei ui&amp;quot;, &amp;quot;microsoft yahei&amp;quot;, simsun, arial, sans-serif; font-size: 10px; text-align: left;&quot;&gt;event_tracking_topic&lt;/span&gt;" style="rounded=0;whiteSpace=wrap;html=1;fillColor=#ffe6cc;strokeColor=#d79b00;" parent="1" vertex="1">
          <mxGeometry x="704" y="780" width="150" height="40" as="geometry" />
        </mxCell>
        <mxCell id="mXQXn8K654Q4OL4YO3v6-40" value="" style="endArrow=classic;html=1;rounded=0;exitX=0.5;exitY=1;exitDx=0;exitDy=0;entryX=0.5;entryY=0;entryDx=0;entryDy=0;" parent="1" source="mXQXn8K654Q4OL4YO3v6-34" target="mXQXn8K654Q4OL4YO3v6-45" edge="1">
          <mxGeometry width="50" height="50" relative="1" as="geometry">
            <mxPoint x="414" y="820" as="sourcePoint" />
            <mxPoint x="414.9214659685863" y="996" as="targetPoint" />
          </mxGeometry>
        </mxCell>
        <mxCell id="mXQXn8K654Q4OL4YO3v6-43" value="" style="endArrow=classic;html=1;rounded=0;exitX=1;exitY=0.5;exitDx=0;exitDy=0;" parent="1" edge="1">
          <mxGeometry width="50" height="50" relative="1" as="geometry">
            <mxPoint x="497" y="800" as="sourcePoint" />
            <mxPoint x="704" y="800" as="targetPoint" />
          </mxGeometry>
        </mxCell>
        <mxCell id="mXQXn8K654Q4OL4YO3v6-44" value="&lt;font style=&quot;font-size: 10px;&quot;&gt;收集指定文件日志&lt;/font&gt;" style="edgeLabel;html=1;align=center;verticalAlign=middle;resizable=0;points=[];" parent="mXQXn8K654Q4OL4YO3v6-43" vertex="1" connectable="0">
          <mxGeometry x="0.1349" relative="1" as="geometry">
            <mxPoint x="-11" y="-1" as="offset" />
          </mxGeometry>
        </mxCell>
        <mxCell id="mXQXn8K654Q4OL4YO3v6-45" value="&lt;font style=&quot;font-size: 10px;&quot;&gt;MongoDB&lt;/font&gt;" style="rounded=0;whiteSpace=wrap;html=1;" parent="1" vertex="1">
          <mxGeometry x="286" y="991" width="90" height="40" as="geometry" />
        </mxCell>
        <mxCell id="mXQXn8K654Q4OL4YO3v6-46" value="&lt;span style=&quot;font-size: 10px;&quot;&gt;报表系统&lt;/span&gt;" style="rounded=0;whiteSpace=wrap;html=1;" parent="1" vertex="1">
          <mxGeometry x="476" y="991" width="90" height="40" as="geometry" />
        </mxCell>
        <mxCell id="mXQXn8K654Q4OL4YO3v6-47" value="" style="endArrow=classic;html=1;rounded=0;entryX=0.5;entryY=0;entryDx=0;entryDy=0;exitX=0.5;exitY=1;exitDx=0;exitDy=0;" parent="1" source="mXQXn8K654Q4OL4YO3v6-34" target="mXQXn8K654Q4OL4YO3v6-46" edge="1">
          <mxGeometry width="50" height="50" relative="1" as="geometry">
            <mxPoint x="416" y="821" as="sourcePoint" />
            <mxPoint x="330" y="1007" as="targetPoint" />
          </mxGeometry>
        </mxCell>
        <mxCell id="mXQXn8K654Q4OL4YO3v6-48" value="" style="endArrow=classic;html=1;rounded=0;exitX=1;exitY=0.5;exitDx=0;exitDy=0;" parent="1" source="mXQXn8K654Q4OL4YO3v6-27" edge="1">
          <mxGeometry width="50" height="50" relative="1" as="geometry">
            <mxPoint x="227" y="781" as="sourcePoint" />
            <mxPoint x="347" y="801" as="targetPoint" />
          </mxGeometry>
        </mxCell>
        <mxCell id="dG80GKDMeRhEDVptzkHj-2" value="&lt;span style=&quot;font-size: 10px;&quot;&gt;CLS&lt;/span&gt;" style="rounded=0;whiteSpace=wrap;html=1;fillColor=#d5e8d4;strokeColor=#82b366;" parent="1" vertex="1">
          <mxGeometry x="360" y="1220" width="150" height="40" as="geometry" />
        </mxCell>
        <mxCell id="dG80GKDMeRhEDVptzkHj-3" value="" style="endArrow=classic;html=1;rounded=0;entryX=0;entryY=0.5;entryDx=0;entryDy=0;exitX=1;exitY=0.5;exitDx=0;exitDy=0;" parent="1" source="dG80GKDMeRhEDVptzkHj-2" target="mXQXn8K654Q4OL4YO3v6-5" edge="1">
          <mxGeometry width="50" height="50" relative="1" as="geometry">
            <mxPoint x="431" y="890" as="sourcePoint" />
            <mxPoint x="531" y="1061" as="targetPoint" />
          </mxGeometry>
        </mxCell>
        <mxCell id="dG80GKDMeRhEDVptzkHj-5" value="&lt;span style=&quot;font-size: 10px;&quot;&gt;topic:&amp;nbsp;&lt;/span&gt;&lt;span style=&quot;background-color: light-dark(#ffffff, var(--ge-dark-color, #121212)); font-size: 10px;&quot;&gt;magnolia_&lt;/span&gt;&lt;span style=&quot;font-size: 10px;&quot;&gt;&lt;br&gt;event_cloud&lt;/span&gt;" style="edgeLabel;html=1;align=left;verticalAlign=middle;resizable=0;points=[];" parent="dG80GKDMeRhEDVptzkHj-3" vertex="1" connectable="0">
          <mxGeometry x="-0.2058" y="1" relative="1" as="geometry">
            <mxPoint x="-5" y="14" as="offset" />
          </mxGeometry>
        </mxCell>
        <mxCell id="dG80GKDMeRhEDVptzkHj-6" value="" style="endArrow=classic;html=1;rounded=0;exitX=1;exitY=0.5;exitDx=0;exitDy=0;entryX=0;entryY=0.5;entryDx=0;entryDy=0;" parent="1" source="mXQXn8K654Q4OL4YO3v6-3" target="mXQXn8K654Q4OL4YO3v6-5" edge="1">
          <mxGeometry width="50" height="50" relative="1" as="geometry">
            <mxPoint x="227" y="1280" as="sourcePoint" />
            <mxPoint x="690" y="1360" as="targetPoint" />
            <Array as="points">
              <mxPoint x="360" y="1358" />
            </Array>
          </mxGeometry>
        </mxCell>
        <mxCell id="dG80GKDMeRhEDVptzkHj-8" value="自有环境" style="edgeLabel;html=1;align=center;verticalAlign=middle;resizable=0;points=[];" parent="dG80GKDMeRhEDVptzkHj-6" vertex="1" connectable="0">
          <mxGeometry x="-0.0268" y="-4" relative="1" as="geometry">
            <mxPoint x="-137" y="-59" as="offset" />
          </mxGeometry>
        </mxCell>
        <mxCell id="dG80GKDMeRhEDVptzkHj-9" value="一汽环境" style="edgeLabel;html=1;align=center;verticalAlign=middle;resizable=0;points=[];" parent="1" vertex="1" connectable="0">
          <mxGeometry x="286.0015417491927" y="1236.9987281671715" as="geometry" />
        </mxCell>
        <mxCell id="dG80GKDMeRhEDVptzkHj-10" value="&lt;font style=&quot;font-size: 10px;&quot;&gt;一汽环境&lt;/font&gt;&lt;div&gt;&lt;font style=&quot;font-size: 10px;&quot;&gt;&amp;nbsp; &amp;nbsp; &amp;nbsp; &amp;nbsp; UAT、Prod&lt;/font&gt;&lt;/div&gt;&lt;div&gt;&lt;font style=&quot;font-size: 10px;&quot;&gt;自有环境&lt;/font&gt;&lt;/div&gt;&lt;div&gt;&lt;font style=&quot;font-size: 10px;&quot;&gt;&amp;nbsp; &amp;nbsp; &amp;nbsp; &amp;nbsp; UAT、Prod&lt;/font&gt;&lt;/div&gt;" style="shape=note;size=20;whiteSpace=wrap;html=1;align=left;" parent="1" vertex="1">
          <mxGeometry x="-200" y="1369.5" width="190" height="80.5" as="geometry" />
        </mxCell>
      </root>
    </mxGraphModel>
  </diagram>
</mxfile>
